<svg width="14" height="14" viewBox="0 0 14 14" fill="none" xmlns="http://www.w3.org/2000/svg">
    <circle cx="6.82812" cy="7.25488" r="6" stroke="#E74C3C"/>
    <path d="M6.82809 6.55846L8.56915 4.8174C8.76137 4.62519 9.07336 4.62519 9.26558 4.8174C9.45779 5.00961 9.45779 5.32161 9.26558 5.51382L7.52452 7.25488L9.26558 8.99594C9.45779 9.18816 9.45779 9.50015 9.26558 9.69237C9.07336 9.88458 8.76137 9.88458 8.56915 9.69237L6.82809 7.95131L5.08703 9.69237C4.89482 9.88458 4.58282 9.88458 4.39061 9.69237C4.1984 9.50015 4.1984 9.18816 4.39061 8.99594L6.13167 7.25488L4.39061 5.51382C4.1984 5.32161 4.1984 5.00961 4.39061 4.8174C4.58282 4.62519 4.89482 4.62519 5.08703 4.8174L6.82809 6.55846Z" fill="#E74C3C"/>
</svg>